<svg xmlns="http://www.w3.org/2000/svg" xmlns:xlink="http://www.w3.org/1999/xlink" width="248" height="90" viewBox="0 0 248 90">
  <defs>
    <clipPath id="clip-path">
      <rect id="Rectangle_7" data-name="Rectangle 7" width="74" height="90" transform="translate(0 -0.286)" fill="#373125" stroke="#707070" stroke-width="1"/>
    </clipPath>
    <clipPath id="clip-path-3">
      <rect id="Rectangle_10" data-name="Rectangle 10" width="80" height="90" transform="translate(271 2382.25)" fill="#373125" stroke="#707070" stroke-width="1"/>
    </clipPath>
  </defs>
  <g id="group" transform="translate(-578 -2570)">
    <g id="Mask_Group_6" data-name="Mask Group 6" transform="translate(668 2570.286)" clip-path="url(#clip-path)">
      <g id="female_x5F_redhead" transform="translate(0 0.55)">
        <g id="Group_97" data-name="Group 97" transform="translate(12.249 8.548)">
          <g id="Group_96" data-name="Group 96">
            <path id="Path_72" data-name="Path 72" d="M67.934,92.991c-14.262,0-25.44-10.685-25.44-23.507V57.018h4.24V69.484c0,11.041,9.636,19.945,21.586,19.945s21.586-8.9,21.586-19.945V57.018c0-11.041-9.636-19.945-21.586-19.945V33.155c14.262,0,25.44,10.685,25.44,23.507V69.128C93.375,82.306,82.2,92.991,67.934,92.991Z" transform="translate(-42.494 -33.155)" fill="#373125"/>
          </g>
        </g>
        <g id="Group_99" data-name="Group 99" transform="translate(4.672 33.919)">
          <g id="Group_98" data-name="Group 98">
            <path id="Path_73" data-name="Path 73" d="M41.663,82.719c-3.084,0-6.167-2.493-7.709-6.055a9.808,9.808,0,0,1-.385-5.7,5.654,5.654,0,0,1,3.855-4.274c1.927-.712,4.625,0,6.553,1.781l-2.7,2.849c-.771-.712-1.542-1.068-2.313-.712a1.922,1.922,0,0,0-1.156,1.425,5.724,5.724,0,0,0,.385,3.562c.771,2.493,3.084,3.918,4.24,3.562l1.542,3.562Z" transform="translate(-33.315 -66.419)" fill="#373125"/>
          </g>
        </g>
        <g id="Group_101" data-name="Group 101" transform="translate(60.431 33.563)">
          <g id="Group_100" data-name="Group 100">
            <path id="Path_74" data-name="Path 74" d="M102.793,82.609a3.72,3.72,0,0,1-1.927-.356l1.542-3.562c1.156.356,3.084-1.069,4.24-3.562.385-1.425.771-2.493.385-3.562a1.922,1.922,0,0,0-1.156-1.425c-.771-.356-1.542,0-2.313.712l-2.7-2.849a6.6,6.6,0,0,1,6.553-1.781,6.423,6.423,0,0,1,3.855,4.274,9.641,9.641,0,0,1-.385,5.7C108.96,80.115,105.877,82.609,102.793,82.609Z" transform="translate(-100.866 -65.952)" fill="#373125"/>
          </g>
        </g>
        <g id="Group_103" data-name="Group 103" transform="translate(12.249 66.603)">
          <g id="Group_102" data-name="Group 102">
            <path id="Path_75" data-name="Path 75" d="M78.727,110.7a4.3,4.3,0,0,1,5.011-1.068h.385c5.4,2.137,9.251,5.7,9.251,9.26,0,6.767-11.178,12.11-25.44,12.11s-25.44-5.342-25.44-11.753c0-3.918,3.855-7.479,9.636-9.616h0a4.3,4.3,0,0,1,5.011,1.068l5.4,6.055c2.7,3.205,8.095,3.205,11.178,0Z" transform="translate(-42.494 -109.271)" fill="#373125"/>
          </g>
        </g>
        <g id="Group_105" data-name="Group 105" transform="translate(29.209 47.014)">
          <g id="Group_104" data-name="Group 104">
            <path id="Path_76" data-name="Path 76" d="M71.907,83.588c-5.011,0-8.865.356-8.865,4.986s3.855,8.192,8.865,8.192,8.866-3.562,8.866-8.192S76.532,83.588,71.907,83.588Zm4.24,6.767h-8.48a2.187,2.187,0,0,1-.771-4.274,20.268,20.268,0,0,1,4.625-.356,18.658,18.658,0,0,1,4.625.356,1.962,1.962,0,0,1,1.542,2.137C78.459,89.643,77.3,90.355,76.147,90.355Z" transform="translate(-63.041 -83.588)" fill="#373125"/>
          </g>
        </g>
        <g id="Group_107" data-name="Group 107">
          <g id="Group_106" data-name="Group 106">
            <path id="Path_77" data-name="Path 77" d="M101.192,50.8h0c1.927-3.918.385-8.548-3.469-11.041a4.267,4.267,0,0,0-1.927-.712,9.838,9.838,0,0,0-3.469-4.274,11.576,11.576,0,0,0-5.782-1.425,11.01,11.01,0,0,0-3.855-4.63,10.639,10.639,0,0,0-10.793,0A6.985,6.985,0,0,0,61.1,25.153s-.385,0-.385-.356a7.107,7.107,0,0,0-4.625-.712.359.359,0,0,0-.385-.356,6.916,6.916,0,0,0-8.866-.356A3.624,3.624,0,0,0,45.3,25.153a7.639,7.639,0,0,0-6.553,2.493,5.34,5.34,0,0,0-1.156,4.63c0,.356.385.712.385,1.068a8.98,8.98,0,0,0-5.011,1.425,5.51,5.51,0,0,0-2.313,6.411s-.385,0-.385.356a5.771,5.771,0,0,0-1.542,8.192,5.816,5.816,0,0,0,1.156,4.986,6.678,6.678,0,0,0,9.251,1.068h0a6.844,6.844,0,0,0,8.48.356l1.156-1.068A7.888,7.888,0,0,0,52.624,54,6.4,6.4,0,0,0,54.937,50.8a7.741,7.741,0,0,0,3.084-.712c.385,0,.771.356,1.542.356a8.065,8.065,0,0,0,3.855,5.342,9.868,9.868,0,0,0,6.167,1.425,8.475,8.475,0,0,0,3.084,11.041,10.639,10.639,0,0,0,10.793,0l.385.356a10.084,10.084,0,0,0,12.72-1.781c2.7-.356,5.4-1.425,6.938-3.918C106.588,58.989,105.432,53.646,101.192,50.8Zm-45.869-14.6c1.156.356,2.7,1.068,3.084,1.068a2.218,2.218,0,0,1,.771,3.205,2.636,2.636,0,0,1-3.469.712A12.642,12.642,0,0,1,53.4,39.044c0-.356-.385-.356-.771,0h0c-.385,0-.385.356-.385.712a10.191,10.191,0,0,1,.385,3.205c0,1.425-1.156,2.137-2.7,2.137a2.23,2.23,0,0,1-2.313-2.493,10.328,10.328,0,0,1,.771-2.849c0-.356,0-.356-.385-.712h-.771c-1.156.712-1.927,1.425-2.7,1.781-1.156.712-2.7,0-3.469-1.068s0-2.493,1.156-3.205a6.355,6.355,0,0,1,3.084-.712.359.359,0,0,0,.385-.356h0c0-.356,0-.356-.385-.712a5.936,5.936,0,0,0-2.313-1.425c-1.156-1.068-1.542-2.493-.771-3.562a2.636,2.636,0,0,1,3.469-.712A12.266,12.266,0,0,1,48,31.208c0,.356.385.356.771,0h0c.385,0,.385-.356.385-.712a10.191,10.191,0,0,1-.385-3.205c0-1.425,1.156-2.137,2.7-2.137a2.23,2.23,0,0,1,2.313,2.493A10.329,10.329,0,0,1,53.01,30.5c0,.356,0,.356.385.712h.771c.771-.356,1.542-1.068,2.313-1.068,1.156-.712,2.7,0,3.469,1.068s0,2.493-1.156,3.205a6.355,6.355,0,0,1-3.084.712.359.359,0,0,0-.385.356h0C54.937,35.838,54.937,35.838,55.322,36.194Z" transform="translate(-27.655 -21.948)" fill="#373125"/>
          </g>
        </g>
        <g id="Group_114" data-name="Group 114" transform="translate(19.187 45.945)">
          <g id="Group_109" data-name="Group 109" transform="translate(2.698)">
            <g id="Group_108" data-name="Group 108">
              <path id="Path_78" data-name="Path 78" d="M55.325,82.187q-1.156,0-1.156,1.068t1.156,1.068q1.156,0,1.156-1.068T55.325,82.187Z" transform="translate(-54.169 -82.187)" fill="#373125"/>
            </g>
          </g>
          <g id="Group_111" data-name="Group 111" transform="translate(0 2.493)">
            <g id="Group_110" data-name="Group 110">
              <ellipse id="Ellipse_2" data-name="Ellipse 2" cx="1.156" cy="1.068" rx="1.156" ry="1.068" fill="#373125"/>
            </g>
          </g>
          <g id="Group_113" data-name="Group 113" transform="translate(5.011 2.493)">
            <g id="Group_112" data-name="Group 112">
              <ellipse id="Ellipse_3" data-name="Ellipse 3" cx="1.156" cy="1.068" rx="1.156" ry="1.068" fill="#373125"/>
            </g>
          </g>
        </g>
        <g id="Group_116" data-name="Group 116" transform="translate(22.641 38.466)">
          <g id="Group_115" data-name="Group 115">
            <path id="Path_79" data-name="Path 79" d="M63.965,78.079a2.151,2.151,0,0,1-1.927-1.068,2.025,2.025,0,0,0-3.084,0,1.767,1.767,0,0,1-2.7.712,1.529,1.529,0,0,1-.771-2.493A6.1,6.1,0,0,1,60.5,72.381a5.213,5.213,0,0,1,5.011,2.849,1.96,1.96,0,0,1-.771,2.493A1.382,1.382,0,0,1,63.965,78.079Z" transform="translate(-55.084 -72.381)" fill="#373125"/>
          </g>
        </g>
      </g>
    </g>
    <g id="Mask_Group_8" data-name="Mask Group 8" transform="translate(752 2570.286)" clip-path="url(#clip-path)">
      <g id="male_x5F_hipster" transform="translate(5.858 -0.286)">
        <g id="Group_127" data-name="Group 127" transform="translate(5.298 63.735)">
          <g id="Group_126" data-name="Group 126">
            <path id="Path_85" data-name="Path 85" d="M66.527,132.327c-14.458,0-25.663-5.953-25.663-14.008,0-4.553,3.615-8.4,10.121-11.206l2.169-1.051,2.169,3.152a10.965,10.965,0,0,1-2.892,1.4c-4.7,2.1-7.591,5.253-7.591,8.054,0,4.9,8.675,10.156,21.687,10.156s21.687-5.253,21.687-10.156c0-2.8-2.892-5.6-7.229-7.354a14.794,14.794,0,0,1-3.253-1.751l2.169-2.8a5.873,5.873,0,0,0,2.53,1.4c6.145,2.451,9.759,6.654,9.759,10.856C92.19,126.374,80.985,132.327,66.527,132.327Z" transform="translate(-40.864 -106.062)" fill="#373125"/>
          </g>
        </g>
        <g id="Group_129" data-name="Group 129" transform="translate(0 37.202)">
          <g id="Group_128" data-name="Group 128">
            <path id="Path_86" data-name="Path 86" d="M41.962,87.3c-2.892,0-5.783-2.451-7.229-5.953a10.087,10.087,0,0,1-.361-5.6,5.472,5.472,0,0,1,3.615-4.2c1.807-.7,4.337,0,6.145,1.751L41.6,76.1c-.723-.7-1.446-1.051-2.169-.7a1.88,1.88,0,0,0-1.084,1.4,5.879,5.879,0,0,0,.361,3.5c.723,2.451,2.892,3.852,3.976,3.5l1.446,3.5A4.271,4.271,0,0,0,41.962,87.3Z" transform="translate(-34.134 -71.275)" fill="#373125"/>
          </g>
        </g>
        <g id="Group_131" data-name="Group 131" transform="translate(52.287 36.852)">
          <g id="Group_130" data-name="Group 130">
            <path id="Path_87" data-name="Path 87" d="M102.36,87.193a3.348,3.348,0,0,1-1.807-.35l1.446-3.5c1.084.35,2.892-1.051,3.976-3.5.361-1.4.723-2.451.361-3.5a1.88,1.88,0,0,0-1.084-1.4c-.723-.35-1.446,0-2.169.7l-2.53-2.8a5.993,5.993,0,0,1,6.145-1.751,6.214,6.214,0,0,1,3.615,4.2,9.913,9.913,0,0,1-.361,5.6C108.143,84.741,105.251,87.193,102.36,87.193Z" transform="translate(-100.553 -70.815)" fill="#373125"/>
          </g>
        </g>
        <g id="Group_133" data-name="Group 133" transform="translate(15.404 42.374)">
          <g id="Group_132" data-name="Group 132">
            <path id="Path_88" data-name="Path 88" d="M62.029,83.658a2,2,0,0,1-1.807-1.051,1.842,1.842,0,0,0-2.892,0,1.621,1.621,0,0,1-2.53.7,1.53,1.53,0,0,1-.723-2.451,5.668,5.668,0,0,1,4.7-2.8,4.858,4.858,0,0,1,4.7,2.8,1.975,1.975,0,0,1-.723,2.451A1.274,1.274,0,0,1,62.029,83.658Z" transform="translate(-53.701 -78.054)" fill="#373125"/>
          </g>
        </g>
        <g id="Group_135" data-name="Group 135" transform="translate(14.696 50.078)">
          <g id="Group_134" data-name="Group 134">
            <path id="Path_89" data-name="Path 89" d="M85.332,92.708a6.461,6.461,0,0,1-8.313-2.1h0a5.043,5.043,0,0,0-4.337-2.451,6.537,6.537,0,0,0-3.615,1.4,4.258,4.258,0,0,0-3.615-1.4,5.548,5.548,0,0,0-4.337,2.451h0a6.876,6.876,0,0,1-8.313,2.1h0l.723.7a12.094,12.094,0,0,0,13.374,3.5h0a7.585,7.585,0,0,0,2.169-1.4,3.322,3.322,0,0,0,2.169,1.4h0a12.094,12.094,0,0,0,13.374-3.5l.723-.7Z" transform="translate(-52.802 -88.156)" fill="#373125"/>
          </g>
        </g>
        <g id="Group_137" data-name="Group 137" transform="translate(38.144 41.323)">
          <g id="Group_136" data-name="Group 136">
            <path id="Path_90" data-name="Path 90" d="M87.694,79.829q-.542,0-1.084-1.051v-.7c0-.7-.361-1.4-1.084-1.4h0a3.174,3.174,0,1,0,.723,6.3,3.135,3.135,0,0,0,2.892-2.1h0a6.723,6.723,0,0,0-1.446-1.051Z" transform="translate(-82.587 -76.677)" fill="#373125"/>
          </g>
        </g>
        <g id="Group_139" data-name="Group 139" transform="translate(1.87 48.313)">
          <g id="Group_138" data-name="Group 138">
            <path id="Path_91" data-name="Path 91" d="M42.106,96.712a5.668,5.668,0,0,1-4.7-2.8c-1.807-2.451-.723-5.953,1.807-7.7a1.571,1.571,0,0,1,2.53.7,1.488,1.488,0,0,1-.723,2.451c-.723,1.051-1.084,2.1-.361,2.8a2.279,2.279,0,0,0,2.53.7,1.571,1.571,0,0,1,2.53.7A1.488,1.488,0,0,1,45,96.011,3.989,3.989,0,0,1,42.106,96.712Z" transform="translate(-36.51 -85.841)" fill="#373125"/>
          </g>
        </g>
        <path id="Path_92" data-name="Path 92" d="M66.918,38.568a20,20,0,0,0-7.952,1.4l1.807,3.5a17.369,17.369,0,0,1,6.145-1.051c11.205,0,20.241,8.755,20.241,19.611V74.288c0,10.856-9.036,19.611-20.241,19.611S46.676,85.144,46.676,74.288V61.681c0-8.054,5.06-14.708,11.928-17.86l-1.084-3.5A23.388,23.388,0,0,0,42.7,61.681V73.938c0,12.957,10.844,23.113,23.856,23.113S90.412,86.545,90.412,73.938V61.681C90.774,48.724,80.292,38.568,66.918,38.568Z" transform="translate(-35.957 -26.311)" fill="#373125"/>
        <path id="Path_93" data-name="Path 93" d="M61.594,22.5H48.581L50.75,36.856,43.16,23.9V65.922h3.976a23.99,23.99,0,0,1,9.036-18.91,9.378,9.378,0,0,0,3.253-8.4h0l7.952,12.257h6.145c7.952,0,14.1,5.953,14.1,13.658h0V62.07l.723,2.1,1.084,1.751h1.807V51.214C91.233,35.455,77.859,22.5,61.594,22.5Z" transform="translate(-36.054 -22.498)" fill="#373125"/>
        <path id="Path_94" data-name="Path 94" d="M79.754,97.953V97.6a2.3,2.3,0,0,0-2.169-2.1H76.5a2.3,2.3,0,0,0-2.169,2.1h0a6.037,6.037,0,0,1-4.7,5.953A6.26,6.26,0,0,1,61.682,97.6h0a2.3,2.3,0,0,0-2.169-2.1H58.429a2.3,2.3,0,0,0-2.169,2.1v.35l-7.591,3.152,8.313,15.409c1.446,2.8,3.253,5.253,6.145,6.3l1.807-4.9v5.253c.723,0,1.446.35,2.53.35h1.807c4.7,0,7.952-3.152,10.121-7.354l8.313-15.058Z" transform="translate(-37.227 -39.821)" fill="#373125"/>
      </g>
    </g>
    <g id="Mask_Group_9" data-name="Mask Group 9" transform="translate(307 187.75)" clip-path="url(#clip-path-3)">
      <g id="male_x5F_afro" transform="translate(275.915 2381.965)">
        <g id="Group_141" data-name="Group 141" transform="translate(9.226 42.299)" opacity="0.2">
          <g id="Group_140" data-name="Group 140">
            <path id="Path_95" data-name="Path 95" d="M99.377,87.951c-2.443,7.464-7.737,12.441-13.846,12.441H82.274c1.629,4.621-1.222,11.019-7.737,11.019s-9.366-6.043-7.737-11.019a1.64,1.64,0,0,0-1.222.355H63.542c-6.923,0-12.624-6.043-14.66-14.574V95.06c0,10.308,10.995,19.194,24.841,19.194h0c13.846,0,24.841-8.531,24.841-19.194Z" transform="translate(-48.882 -86.173)" fill="#373125"/>
          </g>
        </g>
        <g id="Group_143" data-name="Group 143" transform="translate(8.005 11.374)">
          <g id="Group_142" data-name="Group 142">
            <path id="Path_96" data-name="Path 96" d="M74.247,102.047c-15.067,0-26.877-10.664-26.877-23.46v-12.8c0-13.152,12.217-23.46,26.877-23.46s26.877,10.664,26.877,23.46V78.231C101.123,91.383,89.314,102.047,74.247,102.047Zm0-56.161c-12.624,0-22.8,8.886-22.8,19.905V78.231c0,11.019,10.181,19.905,22.8,19.905h0c12.624,0,22.8-8.886,22.8-19.905V65.791C97.051,54.772,86.871,45.885,74.247,45.885Z" transform="translate(-47.37 -42.331)" fill="#373125"/>
          </g>
        </g>
        <g id="Group_145" data-name="Group 145" transform="translate(0 36.695)">
          <g id="Group_144" data-name="Group 144">
            <path id="Path_97" data-name="Path 97" d="M46.283,94.5c-3.258,0-6.516-2.488-8.144-6.043a9.277,9.277,0,0,1-.407-5.687A5.771,5.771,0,0,1,41.8,78.5c2.036-.711,4.887,0,6.923,1.777l-2.851,2.844a2.287,2.287,0,0,0-2.443-.711,1.937,1.937,0,0,0-1.222,1.422,5.423,5.423,0,0,0,.407,3.555c.814,2.488,3.258,3.91,4.479,3.555L48.727,94.5A5.324,5.324,0,0,0,46.283,94.5Z" transform="translate(-37.464 -78.228)" fill="#373125"/>
          </g>
        </g>
        <g id="Group_147" data-name="Group 147" transform="translate(58.907 36.339)">
          <g id="Group_146" data-name="Group 146">
            <path id="Path_98" data-name="Path 98" d="M112.4,94.347a4.13,4.13,0,0,1-2.036-.355l1.629-3.555c1.222.355,3.258-1.066,4.479-3.555.407-1.422.814-2.488.407-3.555a1.937,1.937,0,0,0-1.222-1.422,2.287,2.287,0,0,0-2.443.711l-2.851-2.844A7.248,7.248,0,0,1,117.285,78a6.561,6.561,0,0,1,4.072,4.265,9.121,9.121,0,0,1-.407,5.687C118.914,91.859,115.656,94.347,112.4,94.347Z" transform="translate(-110.362 -77.724)" fill="#373125"/>
          </g>
        </g>
        <g id="Group_149" data-name="Group 149" transform="translate(20.169 43.365)">
          <g id="Group_148" data-name="Group 148">
            <path id="Path_99" data-name="Path 99" d="M68.177,90.884q-.611,0-1.222-1.066v-.711a1.286,1.286,0,0,0-1.222-1.422h0a3.306,3.306,0,0,0-3.258,2.844c-.407,2.133,1.629,3.91,4.072,3.555a3.51,3.51,0,0,0,3.258-2.133h0a7.565,7.565,0,0,0-1.629-1.066Z" transform="translate(-62.424 -87.685)" fill="#373125"/>
          </g>
        </g>
        <g id="Group_151" data-name="Group 151" transform="translate(42.159 43.365)">
          <g id="Group_150" data-name="Group 150">
            <path id="Path_100" data-name="Path 100" d="M95.39,90.884q-.611,0-1.222-1.066v-.711a1.286,1.286,0,0,0-1.222-1.422h0a3.306,3.306,0,0,0-3.258,2.844c-.407,2.133,1.629,3.91,4.072,3.555a3.51,3.51,0,0,0,3.258-2.133h0a2.76,2.76,0,0,0-1.629-1.066C95.8,91.24,95.39,91.24,95.39,90.884Z" transform="translate(-89.636 -87.685)" fill="#373125"/>
          </g>
        </g>
        <g id="Group_153" data-name="Group 153" transform="translate(5.969 63.626)">
          <g id="Group_152" data-name="Group 152">
            <path id="Path_101" data-name="Path 101" d="M73.763,143.068c-16.289,0-28.913-6.043-28.913-14.218,0-4.621,4.072-8.531,11.4-11.374l2.443-1.066,2.443,3.2a12.977,12.977,0,0,1-3.258,1.422c-5.294,2.133-8.552,5.332-8.552,8.175,0,4.976,9.773,10.308,24.433,10.308S98.2,134.182,98.2,129.206c0-2.844-3.258-5.687-8.144-7.464a17.337,17.337,0,0,1-3.665-1.777l2.443-3.2a6.845,6.845,0,0,0,2.851,1.422c6.923,2.488,10.995,6.754,10.995,11.019C102.676,137.026,90.052,143.068,73.763,143.068Z" transform="translate(-44.85 -116.409)" fill="#373125"/>
          </g>
        </g>
        <g id="Group_155" data-name="Group 155" transform="translate(25.515 52.607)">
          <g id="Group_154" data-name="Group 154">
            <path id="Path_102" data-name="Path 102" d="M82.885,100.787H74.333c-2.851,0-5.294,2.133-5.294,4.621V118.56a3.533,3.533,0,0,0,2.851,3.2,3.649,3.649,0,0,0,3.258-1.066v.711c0,1.422,1.222,2.844,3.258,3.2a2.992,2.992,0,0,0,3.665-2.844v-.711a3.649,3.649,0,0,0,3.258,1.066,3.533,3.533,0,0,0,2.851-3.2V105.764C88.179,102.565,85.735,100.787,82.885,100.787Zm-4.479,11.73c-3.258,0-6.108-2.488-6.108-5.332s2.851-3.2,6.108-3.2,6.108.355,6.108,3.2S81.663,112.517,78.405,112.517Z" transform="translate(-69.039 -100.787)" fill="#373125"/>
          </g>
        </g>
        <path id="Path_103" data-name="Path 103" d="M105.47,55c0-1.777-1.222-3.2-2.851-4.265a4.884,4.884,0,0,0,1.222-4.621,5.124,5.124,0,0,0-4.072-3.2,4.026,4.026,0,0,0-.814-4.621c-.814-1.422-2.851-2.133-4.479-2.133a4.887,4.887,0,0,0-2.443-4.265,7.009,7.009,0,0,0-5.294-.711,5.546,5.546,0,0,0-3.665-3.555,5.448,5.448,0,0,0-5.294,1.066A5.827,5.827,0,0,0,72.893,26.2a6.431,6.431,0,0,0-4.887,2.488,6.869,6.869,0,0,0-5.294-1.066c-2.036.711-3.258,1.777-3.665,3.555a5.724,5.724,0,0,0-5.294.711,5.337,5.337,0,0,0-2.443,4.265,6.12,6.12,0,0,0-4.887,2.133,4.867,4.867,0,0,0-.814,4.621,5.812,5.812,0,0,0-4.072,3.2,3.943,3.943,0,0,0,1.222,4.621A4.887,4.887,0,0,0,40.315,55c0,1.777,1.222,3.2,2.851,4.265a4.884,4.884,0,0,0-1.222,4.621,5.124,5.124,0,0,0,4.072,3.2,4.026,4.026,0,0,0,.814,4.621,3.008,3.008,0,0,0,1.629,1.422H50.5V63.172c0-4.976,4.887-9.242,10.588-9.242h0A5.911,5.911,0,0,1,64.341,55a14.29,14.29,0,0,0,8.552,2.844A13.424,13.424,0,0,0,81.444,55a7.232,7.232,0,0,1,3.665-1.066h0c5.7,0,10.588,4.265,10.588,9.242v9.953h2.036A3.008,3.008,0,0,0,99.362,71.7a4.867,4.867,0,0,0,.814-4.621,5.812,5.812,0,0,0,4.072-3.2,3.943,3.943,0,0,0-1.222-4.621A4.508,4.508,0,0,0,105.47,55Z" transform="translate(-38.011 -26.205)" fill="#373125"/>
      </g>
    </g>
  </g>
</svg>
