<svg xmlns="http://www.w3.org/2000/svg" xmlns:xlink="http://www.w3.org/1999/xlink" width="59" height="56.115" viewBox="0 0 59 56.115">
  <defs>
    <clipPath id="clip-path">
      <rect id="ico2" width="59" height="56.115" transform="translate(71.5 61)" fill="#373125"/>
    </clipPath>
  </defs>
  <g id="insta-ico" transform="translate(-71.5 -61)" clip-path="url(#clip-path)">
    <path id="instagram" d="M52.13,39.212A11.761,11.761,0,0,1,40.223,50.821H17.338A11.761,11.761,0,0,1,5.431,39.212V16.9A11.761,11.761,0,0,1,17.338,5.292H40.223A11.761,11.761,0,0,1,52.13,16.9ZM57.561,16.9A17.125,17.125,0,0,0,40.221,0H17.34A17.124,17.124,0,0,0,0,16.9V39.212a17.126,17.126,0,0,0,17.34,16.9h22.88a17.127,17.127,0,0,0,17.34-16.9ZM28.878,37.3a8.88,8.88,0,1,1,9.105-8.877A9,9,0,0,1,28.878,37.3Zm0-22.734A14.055,14.055,0,0,0,14.664,28.419,14.054,14.054,0,0,0,28.878,42.276,14.054,14.054,0,0,0,43.093,28.419,14.056,14.056,0,0,0,28.878,14.562ZM43.923,10.33a3.3,3.3,0,1,0,3.384,3.3,3.343,3.343,0,0,0-3.384-3.3Z" transform="translate(72.22 61)" fill="#373125"/>
  </g>
</svg>
