<svg xmlns="http://www.w3.org/2000/svg" xmlns:xlink="http://www.w3.org/1999/xlink" width="65" height="90" viewBox="0 0 65 90">
  <defs>
    <clipPath id="clip-path">
      <rect id="Rectangle_13" data-name="Rectangle 13" width="65" height="90" transform="translate(230 2383)" fill="#373125"/>
    </clipPath>
  </defs>
  <g id="nina3" transform="translate(-230 -2383)" clip-path="url(#clip-path)">
    <g id="female_x5F_asian" transform="translate(230 2387.926)">
      <g id="Group_168" data-name="Group 168" transform="translate(8.944)">
        <g id="Group_167" data-name="Group 167">
          <path id="Path_111" data-name="Path 111" d="M64.849,92.089A23.617,23.617,0,0,1,41.292,68.368V55.788a23.557,23.557,0,1,1,47.113,0V68.368A23.617,23.617,0,0,1,64.849,92.089Zm0-56.427A20.025,20.025,0,0,0,44.861,55.788V68.368a19.988,19.988,0,1,0,39.974,0V55.788A20.025,20.025,0,0,0,64.849,35.661Z" transform="translate(-41.292 -32.067)" fill="#373125"/>
        </g>
      </g>
      <g id="Group_170" data-name="Group 170" transform="translate(1.928 25.243)">
        <g id="Group_169" data-name="Group 169">
          <path id="Path_112" data-name="Path 112" d="M40.387,79.368c-2.855,0-5.711-2.516-7.138-6.11a10.74,10.74,0,0,1-.357-5.751,5.556,5.556,0,0,1,3.569-4.313c1.785-.719,4.283,0,6.068,1.8l-2.5,2.875c-.714-.719-1.428-1.078-2.141-.719a1.925,1.925,0,0,0-1.071,1.438,6.253,6.253,0,0,0,.357,3.594c.714,2.516,2.855,3.954,3.926,3.594l1.428,3.594Z" transform="translate(-32.657 -62.92)" fill="#373125"/>
        </g>
      </g>
      <g id="Group_172" data-name="Group 172" transform="translate(53.558 24.883)">
        <g id="Group_171" data-name="Group 171">
          <path id="Path_113" data-name="Path 113" d="M97.987,79.289a3.2,3.2,0,0,1-1.785-.359l1.428-3.594c1.071.359,2.855-1.078,3.926-3.594.357-1.438.714-2.516.357-3.594a1.925,1.925,0,0,0-1.071-1.438c-.714-.359-1.428,0-2.141.719l-2.5-2.875c1.785-1.8,3.926-2.516,6.068-1.8,1.785.719,2.855,2.156,3.569,4.313a10.554,10.554,0,0,1-.357,5.751C103.7,77.132,100.842,79.289,97.987,79.289Z" transform="translate(-96.202 -62.48)" fill="#373125"/>
        </g>
      </g>
      <g id="Group_174" data-name="Group 174" transform="translate(8.944 57.865)">
        <g id="Group_173" data-name="Group 173">
          <path id="Path_114" data-name="Path 114" d="M74.842,104.588a3.765,3.765,0,0,1,4.64-1.078h.357c5,2.156,8.566,5.751,8.566,9.345,0,6.829-10.351,12.22-23.556,12.22s-23.556-5.391-23.556-12.22c0-3.954,3.569-7.548,8.923-9.7h0a3.765,3.765,0,0,1,4.64,1.078l5,6.11a6.731,6.731,0,0,0,10.351,0Z" transform="translate(-41.292 -102.791)" fill="#373125"/>
        </g>
      </g>
      <g id="Group_176" data-name="Group 176" transform="translate(16.067 34.144)">
        <g id="Group_175" data-name="Group 175">
          <path id="Path_115" data-name="Path 115" d="M58.284,79.549A1.961,1.961,0,0,1,56.5,78.471a1.777,1.777,0,0,0-2.855,0,1.575,1.575,0,0,1-2.5.719,1.6,1.6,0,0,1-.714-2.516,5.565,5.565,0,0,1,4.64-2.875,4.78,4.78,0,0,1,4.64,2.875A2.07,2.07,0,0,1,59,79.19C59,79.549,58.64,79.549,58.284,79.549Z" transform="translate(-50.06 -73.799)" fill="#373125"/>
        </g>
      </g>
      <g id="Group_178" data-name="Group 178" transform="translate(38.91 34.144)">
        <g id="Group_177" data-name="Group 177">
          <path id="Path_116" data-name="Path 116" d="M79.973,79.549c-.357,0-.714,0-.714-.359a1.6,1.6,0,0,1-.714-2.516,5.565,5.565,0,0,1,4.64-2.875,4.78,4.78,0,0,1,4.64,2.875,2.07,2.07,0,0,1-.714,2.516,2.04,2.04,0,0,1-2.5-.719,1.777,1.777,0,0,0-2.855,0A1.961,1.961,0,0,1,79.973,79.549Z" transform="translate(-78.174 -73.799)" fill="#373125"/>
        </g>
      </g>
      <g id="Group_180" data-name="Group 180" transform="translate(25.552 40.479)">
        <g id="Group_179" data-name="Group 179">
          <path id="Path_117" data-name="Path 117" d="M75.819,82.754a3.6,3.6,0,0,0-3.569-1.078,17.206,17.206,0,0,1-6.068,0,4.124,4.124,0,0,0-3.569,1.438,4.509,4.509,0,0,0,.714,6.11,7.764,7.764,0,0,0,2.855,1.8,10.476,10.476,0,0,0,9.637-1.8C77.6,87.786,77.6,84.551,75.819,82.754Zm-3.212,4.313a9.817,9.817,0,0,1-3.212.359H66.183c-.714,0-1.071-.719-1.428-1.438,0-.719.714-1.8,1.428-1.8l6.068-.359c.714,0,1.785.719,1.785,1.438A2.526,2.526,0,0,1,72.607,87.067Z" transform="translate(-61.733 -81.541)" fill="#373125"/>
        </g>
      </g>
      <g id="Group_182" data-name="Group 182" transform="translate(4.488 37.005)">
        <g id="Group_181" data-name="Group 181">
          <path id="Path_118" data-name="Path 118" d="M41.335,88.452a5.565,5.565,0,0,1-4.64-2.875c-1.785-2.516-.714-6.11,1.785-7.907a1.53,1.53,0,0,1,2.5.719,1.548,1.548,0,0,1-.714,2.516,2.232,2.232,0,0,0-.714,2.516,2.2,2.2,0,0,0,2.5.719,1.53,1.53,0,0,1,2.5.719,1.548,1.548,0,0,1-.714,2.516A2.771,2.771,0,0,1,41.335,88.452Z" transform="translate(-35.809 -77.295)" fill="#373125"/>
        </g>
      </g>
      <g id="Group_184" data-name="Group 184" transform="translate(51.203 37.523)">
        <g id="Group_183" data-name="Group 183">
          <path id="Path_119" data-name="Path 119" d="M97.086,88.567a6.687,6.687,0,0,1-2.855-.719,1.9,1.9,0,0,1-.714-2.516,1.874,1.874,0,0,1,2.5-.719,1.874,1.874,0,0,0,2.5-.719,1.9,1.9,0,0,0-.714-2.516,1.9,1.9,0,0,1-.714-2.516,1.874,1.874,0,0,1,2.5-.719,5.788,5.788,0,0,1,1.785,7.907C101.012,87.489,98.871,88.567,97.086,88.567Z" transform="translate(-93.304 -77.929)" fill="#373125"/>
        </g>
      </g>
      <g id="Group_186" data-name="Group 186" transform="translate(0 0.32)">
        <g id="Group_185" data-name="Group 185">
          <path id="Path_120" data-name="Path 120" d="M95.264,41.483A9.593,9.593,0,0,0,86.7,32.5a8.814,8.814,0,0,0-9.28,5.391,1.922,1.922,0,0,1-2.855.719c-3.569-2.875-7.5-4.672-11.778-4.672s-8.209,1.8-11.778,4.672a1.863,1.863,0,0,1-2.855-.719,9.385,9.385,0,0,0-9.28-5.391,9.593,9.593,0,0,0-8.566,8.985,9.426,9.426,0,0,0,9.28,10.063h0c1.428,0,2.141,1.078,1.785,2.516A55.942,55.942,0,0,0,39.228,65.2a89.928,89.928,0,0,0,17.846,2.156l1.071-7.548a.9.9,0,0,1,1.785,0v7.548h2.855a98.712,98.712,0,0,0,23.556-2.516A55.941,55.941,0,0,0,84.2,53.7a1.914,1.914,0,0,1,1.785-2.516h0A8.936,8.936,0,0,0,95.264,41.483Z" transform="translate(-30.285 -32.459)" fill="#373125"/>
        </g>
      </g>
    </g>
  </g>
</svg>
