<svg id="nina4" xmlns="http://www.w3.org/2000/svg" width="69.655" height="90" viewBox="0 0 69.655 90">
  <g id="Group_157" data-name="Group 157" transform="translate(14.495 3.249)">
    <g id="Group_156" data-name="Group 156">
      <path id="Path_104" data-name="Path 104" d="M76.7,99.585c-14.9,0-26.574-11.183-26.574-24.6V61.937c0-13.792,12.079-24.6,26.574-24.6s26.574,11.183,26.574,24.6V74.984C103.672,88.4,91.593,99.585,76.7,99.585Zm0-58.522c-12.482,0-22.547,9.319-22.547,20.874V74.984c0,11.555,10.066,20.874,22.547,20.874h0c12.482,0,22.547-9.319,22.547-20.874V61.937C99.243,50.382,89.177,41.063,76.7,41.063Z" transform="translate(-50.122 -37.336)" fill="#373125"/>
    </g>
  </g>
  <g id="Group_159" data-name="Group 159" transform="translate(14.897 67.262)">
    <g id="Group_158" data-name="Group 158">
      <path id="Path_105" data-name="Path 105" d="M88.481,121.17a4.489,4.489,0,0,1,5.234-1.118h.4c5.637,2.237,9.663,5.964,9.663,9.692,0,7.082-11.676,12.674-26.574,12.674s-26.574-5.591-26.574-12.3c0-4.1,4.026-7.828,10.066-10.064h0a4.489,4.489,0,0,1,5.234,1.118l5.637,6.337c2.818,3.355,8.455,3.355,11.676,0Z" transform="translate(-50.634 -119.679)" fill="#373125"/>
    </g>
  </g>
  <path id="Path_106" data-name="Path 106" d="M66.336,33.558C53.049,36.334,44.191,48.624,44.191,62.1V79.548a12.314,12.314,0,0,1-10.468,11.5H31.71A14.161,14.161,0,0,0,43.386,95.01h0c.805,0,1.208.793.805,1.586-.805.4-1.208.793-2.013,1.189-.4,0-.805.4-1.208.4a10.529,10.529,0,0,0,8.455,1.189c.4,0,.805-.4,1.208-.4,1.611-.793,3.221-.793,4.429.4h0c0-.4,0-.4.4-.793.805-2.379.805-4.758-.805-6.74-.805-1.189-2.013-2.379-2.416-3.568L51.036,87.08h0a23.5,23.5,0,0,1,4.429-19.823l6.845-8.326h0c-5.234-4.361-.4-6.74.805-4.361A46.056,46.056,0,0,0,87.273,75.583,10.088,10.088,0,0,1,91.7,91.838h0a5.931,5.931,0,0,0-.805,6.74c0,.4,0,.4.4.793a28.649,28.649,0,0,0,10.066-21.409V61.707A28.7,28.7,0,0,0,66.336,33.558Z" transform="translate(-31.71 -32.878)" fill="#373125"/>
  <g id="Group_162" data-name="Group 162" transform="translate(30.6 49.659)">
    <g id="Group_161" data-name="Group 161">
      <g id="Group_160" data-name="Group 160">
        <path id="Path_107" data-name="Path 107" d="M70.58,100.669A14.348,14.348,0,0,1,73.8,98.805c.4-.373.805-.373,1.208-.746.4,0,.805-.373,1.208-.373.805,0,1.611,0,2.013.746.4.373.4.373.805,0a1.952,1.952,0,0,1,2.013,0,5.862,5.862,0,0,1,1.611,1.491c.805,1.118,1.208,1.864,2.013,2.982h0a2.15,2.15,0,0,1-1.611.746c-.4.373-1.208.746-1.611,1.118a6.407,6.407,0,0,1-8.858-1.864c-.805-.373-1.208-1.118-2.013-2.237Z" transform="translate(-70.58 -97.687)" fill="#373125"/>
      </g>
    </g>
  </g>
  <g id="Group_164" data-name="Group 164" transform="translate(20.472 36.829)">
    <g id="Group_163" data-name="Group 163">
      <path id="Path_108" data-name="Path 108" d="M96.027,80.809H60.6c-1.611,0-3.221,1.491-2.818,2.982l.4,6.71A2.656,2.656,0,0,0,61,93.11H67.44c3.624,0,6.442-2.237,6.845-5.591a4.186,4.186,0,0,1,3.624-2.982,3.443,3.443,0,0,1,3.624,2.982c.4,2.982,3.624,5.591,6.845,5.591h6.442A2.656,2.656,0,0,0,97.637,90.5l.4-6.71C99.248,82.3,97.637,80.809,96.027,80.809ZM67.037,83.418c-2.013.373-3.624,2.237-3.221,4.1h0A1.835,1.835,0,0,1,61.8,89.382a2.649,2.649,0,0,1-2.013-1.491v-.373a3.962,3.962,0,0,1,4.026-4.1h3.221Zm24.963,0c-2.013.373-3.624,2.237-3.221,4.1h0a1.835,1.835,0,0,1-2.013,1.864,2.649,2.649,0,0,1-2.013-1.491v-.373a3.962,3.962,0,0,1,4.026-4.1H92Z" transform="translate(-57.714 -80.809)" fill="#373125"/>
    </g>
  </g>
</svg>
