<svg xmlns="http://www.w3.org/2000/svg" xmlns:xlink="http://www.w3.org/1999/xlink" width="95" height="90" viewBox="0 0 95 90">
  <defs>
    <clipPath id="clip-path">
      <rect id="Rectangle_3" data-name="Rectangle 3" width="95" height="90" fill="#373125" stroke="#707070" stroke-width="1"/>
    </clipPath>
  </defs>
  <g id="nina2" clip-path="url(#clip-path)">
    <g id="female_x5F_short_x5F_hair" transform="translate(20.436)">
      <g id="Group_26" data-name="Group 26" transform="translate(0.006 36.245)">
        <g id="Group_25" data-name="Group 25">
          <path id="Path_37" data-name="Path 37" d="M41.173,88.446c-2.494,0-4.989-2.457-6.236-5.966a11.669,11.669,0,0,1-.312-5.615,5.312,5.312,0,0,1,3.118-4.212c1.559-.7,3.741,0,5.3,1.755l-2.182,2.808c-.624-.7-1.247-1.053-1.871-.7a1.886,1.886,0,0,0-.935,1.4,6.778,6.778,0,0,0,.312,3.51c.624,2.457,2.494,3.861,3.43,3.51l1.247,3.51A3.19,3.19,0,0,0,41.173,88.446Z" transform="translate(-34.421 -72.384)" fill="#373125"/>
        </g>
      </g>
      <g id="Group_28" data-name="Group 28" transform="translate(45.108 35.894)">
        <g id="Group_27" data-name="Group 27">
          <path id="Path_38" data-name="Path 38" d="M103.869,88.328a2.547,2.547,0,0,1-1.559-.351l1.247-3.51c.935.351,2.494-1.053,3.43-3.51a7.073,7.073,0,0,0,.312-3.51,1.887,1.887,0,0,0-.935-1.4c-.624-.351-1.247,0-1.871.7l-2.182-2.808c1.559-1.755,3.43-2.457,5.3-1.755,1.559.7,2.494,2.106,3.118,4.212a11.464,11.464,0,0,1-.312,5.615C108.858,85.871,106.364,88.328,103.869,88.328Z" transform="translate(-102.31 -71.915)" fill="#373125"/>
        </g>
      </g>
      <g id="Group_30" data-name="Group 30" transform="translate(2.167 48.66)">
        <g id="Group_29" data-name="Group 29">
          <path id="Path_39" data-name="Path 39" d="M42.577,99.652a4.824,4.824,0,0,1-4.053-2.808,5.8,5.8,0,0,1,1.559-7.721,1.92,1.92,0,0,1,2.182.7,1.582,1.582,0,0,1-.624,2.457,2.341,2.341,0,0,0-.624,2.457,1.8,1.8,0,0,0,2.182.7,1.29,1.29,0,0,1,2.182.7,1.582,1.582,0,0,1-.624,2.457A2.693,2.693,0,0,1,42.577,99.652Z" transform="translate(-37.674 -88.985)" fill="#373125"/>
        </g>
      </g>
      <g id="Group_32" data-name="Group 32" transform="translate(43.05 48.939)">
        <g id="Group_31" data-name="Group 31">
          <path id="Path_40" data-name="Path 40" d="M102.518,99.746a5.361,5.361,0,0,1-2.494-.7,1.987,1.987,0,0,1-.624-2.457,1.544,1.544,0,0,1,2.182-.7,1.544,1.544,0,0,0,2.182-.7,1.987,1.987,0,0,0-.624-2.457,1.987,1.987,0,0,1-.624-2.457,1.544,1.544,0,0,1,2.182-.7,6.06,6.06,0,0,1,1.559,7.721A4.275,4.275,0,0,1,102.518,99.746Z" transform="translate(-99.214 -89.358)" fill="#373125"/>
        </g>
      </g>
      <g id="Group_34" data-name="Group 34" transform="translate(6.135 9.139)">
        <g id="Group_33" data-name="Group 33">
          <path id="Path_41" data-name="Path 41" d="M64.224,94.748c-11.536,0-20.578-10.529-20.578-23.164V59.3c0-12.986,9.353-23.164,20.578-23.164S84.8,46.666,84.8,59.3V71.585C84.8,84.219,75.448,94.748,64.224,94.748Zm0-55.1c-9.665,0-17.46,8.774-17.46,19.654V71.585c0,10.88,7.795,19.654,17.46,19.654s17.46-8.774,17.46-19.654V59.3C81.372,48.421,73.889,39.647,64.224,39.647Z" transform="translate(-43.646 -36.137)" fill="#373125"/>
        </g>
      </g>
      <g id="Group_36" data-name="Group 36" transform="translate(32.908 37.567)">
        <g id="Group_35" data-name="Group 35">
          <path id="Path_42" data-name="Path 42" d="M88.352,77.31q-.468,0-.935-1.053v-.7c0-.7-.312-1.4-.935-1.4h0a2.867,2.867,0,0,0-2.494,2.808c-.312,2.106,1.247,3.861,3.118,3.51A2.787,2.787,0,0,0,89.6,78.363h0a1.146,1.146,0,0,0-1.247-1.053Z" transform="translate(-83.947 -74.152)" fill="#373125"/>
        </g>
      </g>
      <g id="Group_38" data-name="Group 38" transform="translate(6.135 64.24)">
        <g id="Group_37" data-name="Group 37">
          <path id="Path_43" data-name="Path 43" d="M72.954,111.574a3.074,3.074,0,0,1,4.053-1.053h.312c4.365,2.106,7.483,5.615,7.483,9.125,0,6.668-9.042,11.933-20.578,11.933s-20.578-5.264-20.578-11.933c0-3.861,3.118-7.37,7.795-9.476h0a3.074,3.074,0,0,1,4.053,1.053l4.365,5.966c2.182,3.159,6.547,3.159,9.042,0Z" transform="translate(-43.646 -109.819)" fill="#373125"/>
        </g>
      </g>
      <g id="Group_41" data-name="Group 41" transform="translate(20.789 50.758)">
        <g id="Group_40" data-name="Group 40">
          <g id="Group_39" data-name="Group 39">
            <path id="Path_44" data-name="Path 44" d="M65.7,95.8l2.182-2.457c.312-.351.624-.7.935-.7.312-.351.624-.351.935-.7.624-.351,1.247,0,1.871.351.312.351.312.351.624,0,.624-.351,1.247-.7,1.871-.351a3.213,3.213,0,0,1,1.559,1.4L77.863,95.8h0l-.935,1.053-1.247,1.4a5.043,5.043,0,0,1-7.795,0L65.7,95.8Z" transform="translate(-65.704 -91.791)" fill="#373125"/>
          </g>
        </g>
      </g>
      <path id="Path_45" data-name="Path 45" d="M72.972,24.632c-4.053-1.4-9.042-.7-13.407,1.755A24.346,24.346,0,0,1,49.9,29.546h0c-7.483,1.053-13.407,9.125-14.966,16.5C32.44,57.272,38.988,71.311,52.082,79.032c-4.989-7.721-4.989-12.635-4.365-15.793h0c1.247-4.563,6.236-5.966,8.73-2.457l2.806,3.159a28.24,28.24,0,0,0,26.5,8.072C93.238,50.6,84.508,28.844,72.972,24.632ZM64.242,56.57a2.123,2.123,0,0,1-2.806,0L55.2,49.551a2.885,2.885,0,0,1,0-3.159,2.123,2.123,0,0,1,2.806,0l6.236,7.019A2.885,2.885,0,0,1,64.242,56.57Zm10.289,0a2.123,2.123,0,0,1-2.806,0l-6.236-7.019a2.885,2.885,0,0,1,0-3.159,2.123,2.123,0,0,1,2.806,0l6.236,7.019A2.885,2.885,0,0,1,74.531,56.57Z" transform="translate(-34.412 -23.917)" fill="#373125"/>
      <g id="Group_43" data-name="Group 43" transform="translate(15.787 41.427)">
        <g id="Group_42" data-name="Group 42">
          <path id="Path_46" data-name="Path 46" d="M65.359,84.929A1.7,1.7,0,0,1,63.8,83.877a1.459,1.459,0,0,0-2.494,0,1.32,1.32,0,0,1-2.182.7,1.64,1.64,0,0,1-.624-2.457,4.824,4.824,0,0,1,4.053-2.808,4.168,4.168,0,0,1,4.053,2.808,2.158,2.158,0,0,1-.624,2.457C65.983,84.929,65.671,84.929,65.359,84.929Z" transform="translate(-58.176 -79.314)" fill="#373125"/>
        </g>
      </g>
    </g>
  </g>
</svg>
