<svg xmlns="http://www.w3.org/2000/svg" xmlns:xlink="http://www.w3.org/1999/xlink" width="83" height="90" viewBox="0 0 83 90">
  <defs>
    <clipPath id="clip-path">
      <rect id="Rectangle_2" data-name="Rectangle 2" width="83" height="90" transform="translate(119 1867)" fill="#373125"/>
    </clipPath>
  </defs>
  <g id="nina1" transform="translate(-119 -1867)" clip-path="url(#clip-path)">
    <g id="female_x5F_student" transform="translate(129.567 1867)">
      <g id="Group_3" data-name="Group 3" transform="translate(4.97 64.742)">
        <g id="Group_2" data-name="Group 2">
          <path id="Path_26" data-name="Path 26" d="M44.079,81.22c-12.7,0-22.539-5.852-22.539-13.769,0-4.475,3.174-8.261,8.889-11.015a4.654,4.654,0,0,1,6.032,1.721l4.444,5.852a3.817,3.817,0,0,0,3.174,1.721h0a3.817,3.817,0,0,0,3.174-1.721L51.7,58.158c1.587-2.065,4.127-2.754,6.032-1.377h.317c5.4,2.41,8.571,6.54,8.571,10.671C66.3,75.369,56.46,81.22,44.079,81.22ZM32.334,59.879H31.7c-4.444,2.065-6.984,4.819-6.984,7.573,0,4.819,7.619,9.982,19.047,9.982s19.047-5.163,19.047-9.982c0-2.754-2.54-5.508-6.349-7.229h-.317a1.831,1.831,0,0,0-1.9.344l-4.444,5.852a7.031,7.031,0,0,1-5.714,3.1h0a6.629,6.629,0,0,1-5.714-3.1l-4.444-5.852C33.286,60.223,32.969,59.879,32.334,59.879Z" transform="translate(-21.541 -55.962)" fill="#373125"/>
        </g>
      </g>
      <g id="Group_5" data-name="Group 5" transform="translate(6.557 11.517)">
        <g id="Group_4" data-name="Group 4">
          <path id="Path_27" data-name="Path 27" d="M43.716,75.6c-11.746,0-20.952-10.327-20.952-22.719V40.832c0-12.736,9.523-22.719,20.952-22.719S64.668,28.44,64.668,40.832V52.88C64.668,65.272,55.144,75.6,43.716,75.6Zm0-54.043c-9.841,0-17.777,8.606-17.777,19.276V52.88c0,10.671,7.936,19.276,17.777,19.276S61.493,63.551,61.493,52.88V40.832C61.176,30.161,53.24,21.556,43.716,21.556Z" transform="translate(-22.765 -18.114)" fill="#373125"/>
        </g>
      </g>
      <g id="Group_7" data-name="Group 7" transform="translate(0 38.791)">
        <g id="Group_6" data-name="Group 6">
          <path id="Path_28" data-name="Path 28" d="M24.583,53.262c-2.54,0-5.079-2.41-6.349-5.852a11.041,11.041,0,0,1-.317-5.508,5.238,5.238,0,0,1,3.174-4.131c1.587-.688,3.809,0,5.4,1.721l-2.222,2.754c-.635-.688-1.27-1.033-1.9-.688a1.845,1.845,0,0,0-.952,1.377,6.418,6.418,0,0,0,.317,3.442c.635,2.41,2.54,3.786,3.492,3.442l1.27,3.442Z" transform="translate(-17.708 -37.508)" fill="#373125"/>
        </g>
      </g>
      <g id="Group_9" data-name="Group 9" transform="translate(46.239 38.447)">
        <g id="Group_8" data-name="Group 8">
          <path id="Path_29" data-name="Path 29" d="M54.949,53.362a2.674,2.674,0,0,1-1.587-.344l1.27-3.442c.952.344,2.54-1.033,3.492-3.442a6.7,6.7,0,0,0,.317-3.442,1.845,1.845,0,0,0-.952-1.377c-.635-.344-1.27,0-1.9.688l-2.222-2.754c1.587-1.721,3.492-2.41,5.4-1.721,1.587.688,2.54,2.065,3.174,4.131a10.848,10.848,0,0,1-.317,5.508C60.028,50.952,57.489,53.362,54.949,53.362Z" transform="translate(-53.362 -37.264)" fill="#373125"/>
        </g>
      </g>
      <g id="Group_11" data-name="Group 11" transform="translate(17.033 47.317)">
        <g id="Group_10" data-name="Group 10">
          <path id="Path_30" data-name="Path 30" d="M30.842,43.571h2.54c1.587,0,2.54,1.377,2.54,3.1v.344c0,.688-.635,1.033-1.27,1.033a1.427,1.427,0,0,1-1.27-1.377h0c0-1.377-.635-2.754-1.9-2.754Z" transform="translate(-30.842 -43.571)" fill="#373125"/>
        </g>
      </g>
      <g id="Group_13" data-name="Group 13" transform="translate(35.128 47.317)">
        <g id="Group_12" data-name="Group 12">
          <path id="Path_31" data-name="Path 31" d="M44.795,43.571h2.54c1.587,0,2.54,1.377,2.54,3.1v.344c0,.688-.635,1.033-1.27,1.033a1.427,1.427,0,0,1-1.27-1.377h0c0-1.377-.635-2.754-1.9-2.754Z" transform="translate(-44.795 -43.571)" fill="#373125"/>
        </g>
      </g>
      <g id="Group_15" data-name="Group 15" transform="translate(7.192 40.432)">
        <g id="Group_14" data-name="Group 14">
          <path id="Path_32" data-name="Path 32" d="M35.952,55.886c-6.984,0-12.7-6.2-12.7-13.769V40.4a1.827,1.827,0,0,1,1.9-1.721l11.428,1.377a7.447,7.447,0,0,1,6.349,8.261c0,3.786-2.222,7.573-6.984,7.573Zm-9.206-13.08c.317,5.163,4.444,9.294,9.206,9.294h0c2.54,0,3.492-2.065,3.809-3.786,0-2.065-.952-4.131-3.492-4.475Z" transform="translate(-23.254 -38.675)" fill="#373125"/>
        </g>
      </g>
      <g id="Group_17" data-name="Group 17" transform="translate(27.797 40.776)">
        <g id="Group_16" data-name="Group 16">
          <path id="Path_33" data-name="Path 33" d="M46.473,55.787h0c-4.762,0-6.984-3.786-7.3-7.229A7.447,7.447,0,0,1,45.521,40.3L56.949,38.92a1.827,1.827,0,0,1,1.9,1.721v1.721C58.853,49.935,53.457,55.787,46.473,55.787Zm9.206-13.08-9.841,1.377c-2.54.344-3.492,2.41-3.492,4.475a3.554,3.554,0,0,0,3.809,3.786h0C51.235,52.345,55.362,48.214,55.679,42.706Z" transform="translate(-39.142 -38.92)" fill="#373125"/>
        </g>
      </g>
      <g id="Group_19" data-name="Group 19" transform="translate(23.7 45.251)">
        <g id="Group_18" data-name="Group 18">
          <path id="Path_34" data-name="Path 34" d="M41.7,45.544H37.57a1.727,1.727,0,0,1,0-3.442H41.7a1.727,1.727,0,0,1,0,3.442Z" transform="translate(-35.983 -42.102)" fill="#373125"/>
        </g>
      </g>
      <g id="Group_22" data-name="Group 22" transform="translate(22.112 56.468)">
        <g id="Group_21" data-name="Group 21">
          <g id="Group_20" data-name="Group 20">
            <path id="Path_35" data-name="Path 35" d="M34.759,53.319l1.9-2.065c.317-.344.635-.344.635-.688a1.11,1.11,0,0,1,.952-.344c.635-.344.952,0,1.587.344.317.344.317.344.635,0a1.321,1.321,0,0,1,1.587-.344c.635.344.952.688,1.587,1.033l1.9,2.065h0L44.6,54.352l-.952,1.033a4.361,4.361,0,0,1-6.666,0,6.639,6.639,0,0,1-2.222-2.065Z" transform="translate(-34.759 -50.078)" fill="#373125"/>
          </g>
        </g>
      </g>
      <g id="Group_24" data-name="Group 24" transform="translate(1.161)">
        <g id="Group_23" data-name="Group 23">
          <path id="Path_36" data-name="Path 36" d="M77.966,19.031a11.143,11.143,0,0,0-1.587-3.442,25.43,25.43,0,0,1-2.54,16.178c-1.27,2.754-5.079,1.377-4.762-1.721V26.6c-.635-8.606-6.666-15.49-14.6-16.523-7.3-1.033-13.65,3.1-16.825,9.294-.635,0-1.587-.344-2.222-.344-9.206,0-16.825,9.982-16.825,22.374,0,8.606,3.809,16.178,9.206,19.965V59.305A28.248,28.248,0,0,1,29.4,50.011c2.222-6.54,9.841-9.294,14.92-4.819a20.133,20.133,0,0,0,20.952,3.442C76.379,44.5,82.093,31.079,77.966,19.031Z" transform="translate(-18.603 -9.924)" fill="#373125"/>
        </g>
      </g>
    </g>
  </g>
</svg>
