<svg xmlns="http://www.w3.org/2000/svg" xmlns:xlink="http://www.w3.org/1999/xlink" width="85" height="90" viewBox="0 0 85 90">
  <defs>
    <clipPath id="clip-path">
      <rect id="Rectangle_5" data-name="Rectangle 5" width="85" height="90" fill="#373125" stroke="#707070" stroke-width="1"/>
    </clipPath>
  </defs>
  <g id="nino1" clip-path="url(#clip-path)">
    <g id="male_x5F_student" transform="translate(10.95)">
      <g id="Group_72" data-name="Group 72" transform="translate(0 7.104)">
        <g id="Group_59" data-name="Group 59" transform="translate(6.872)">
          <g id="Group_58" data-name="Group 58">
            <path id="Path_55" data-name="Path 55" d="M97.631,128.253a24.456,24.456,0,0,1-24.31-24.645V90.165A24.454,24.454,0,0,1,97.631,65.52c13.26,0,24.31,11.2,24.31,24.645v13.069C121.941,117.05,111.259,128.253,97.631,128.253Zm0-59A20.736,20.736,0,0,0,77,90.165v13.069a20.629,20.629,0,1,0,41.254,0V90.165A20.736,20.736,0,0,0,97.631,69.254Z" transform="translate(-73.32 -65.52)" fill="#373125"/>
          </g>
        </g>
        <g id="Group_61" data-name="Group 61" transform="translate(0 26.599)">
          <g id="Group_60" data-name="Group 60">
            <path id="Path_56" data-name="Path 56" d="M66.377,138.172a5.238,5.238,0,0,1-3.683-1.494,11.373,11.373,0,0,1-3.315-4.854,11.229,11.229,0,0,1-.368-5.975,5.762,5.762,0,0,1,3.683-4.481c1.842-.747,4.42,0,6.262,1.867l-2.578,2.987c-.737-.747-1.473-1.12-2.21-.747a2,2,0,0,0-1.105,1.494,6.538,6.538,0,0,0,.368,3.734,3.865,3.865,0,0,0,2.21,2.987c-.368,0,.368.373,1.105.373l1.473,3.734A15.762,15.762,0,0,0,66.377,138.172Z" transform="translate(-58.768 -121.083)" fill="#373125"/>
          </g>
        </g>
        <g id="Group_63" data-name="Group 63" transform="translate(52.914 26.226)">
          <g id="Group_62" data-name="Group 62">
            <path id="Path_57" data-name="Path 57" d="M172.663,137.766c-.737,0-1.1,0-1.473-.373l1.473-3.734c.737.373,1.473-.373,1.842-.373a8.977,8.977,0,0,0,2.21-2.987c.368-1.494.737-2.614.368-3.734a2,2,0,0,0-1.1-1.494c-.737-.373-1.473,0-2.21.747l-2.947-3.361c1.842-1.867,4.052-2.614,6.262-1.867,1.842.747,2.947,2.24,3.683,4.481a11.035,11.035,0,0,1-.368,5.975,9.483,9.483,0,0,1-3.315,4.854C175.241,137.019,174.136,137.766,172.663,137.766Z" transform="translate(-170.821 -120.303)" fill="#373125"/>
          </g>
        </g>
        <g id="Group_65" data-name="Group 65" transform="translate(38.502 30.246)">
          <g id="Group_64" data-name="Group 64">
            <path id="Path_58" data-name="Path 58" d="M145.5,132.061q-.552,0-1.1-1.12v-.747c0-.747-.368-1.494-1.105-1.494h0a3.383,3.383,0,1,0,3.683,4.481h0c.368,0-.368-.747-1.473-1.12Z" transform="translate(-140.301 -128.701)" fill="#373125"/>
          </g>
        </g>
        <g id="Group_67" data-name="Group 67" transform="translate(17.138 30.246)">
          <g id="Group_66" data-name="Group 66">
            <path id="Path_59" data-name="Path 59" d="M100.265,132.061q-.553,0-1.105-1.12v-.747c0-.747-.368-1.494-1.105-1.494h0a3.383,3.383,0,1,0,3.683,4.481h0c.368,0-.368-.747-1.473-1.12Z" transform="translate(-95.061 -128.701)" fill="#373125"/>
          </g>
        </g>
        <g id="Group_69" data-name="Group 69" transform="translate(5.03 55.234)">
          <g id="Group_68" data-name="Group 68">
            <path id="Path_60" data-name="Path 60" d="M95.572,208.56c-14.733,0-26.152-6.348-26.152-14.936,0-4.854,3.683-8.962,10.313-11.949a5.612,5.612,0,0,1,7,1.867l8.84,10.829,8.84-11.2c1.842-2.24,4.788-2.987,7-1.494h.368c6.262,2.614,9.945,7.095,9.945,11.576C121.724,202.212,110.306,208.56,95.572,208.56Zm-13.26-23.151h-.737c-5.157,2.24-8.1,5.6-8.1,8.588,0,5.228,8.84,10.829,22.1,10.829s22.1-5.6,22.1-10.829c0-2.987-2.947-5.975-7.367-7.842a.362.362,0,0,1-.368-.373,2.237,2.237,0,0,0-2.21.373h0L95.941,201.092,84.154,186.529A3.355,3.355,0,0,0,82.312,185.409Z" transform="translate(-69.42 -180.898)" fill="#373125"/>
          </g>
        </g>
        <g id="Group_71" data-name="Group 71" transform="translate(29.34 52.65)">
          <g id="Group_70" data-name="Group 70">
            <ellipse id="Ellipse_1" data-name="Ellipse 1" cx="1.842" cy="1.867" rx="1.842" ry="1.867" fill="#373125"/>
          </g>
        </g>
      </g>
      <path id="Path_61" data-name="Path 61" d="M96.894,50.69c-13.26.373-23.573,12.322-23.573,25.765V98.486h4.052V91.392a39.057,39.057,0,0,1,7-22.031,24.736,24.736,0,0,0,18.417,17.177,24.645,24.645,0,0,1-13.26-17.924l2.947,4.107a32,32,0,0,0,26.152,13.816V98.113h4.052V74.962C121.941,61.519,110.891,50.317,96.894,50.69Z" transform="translate(-66.448 -50.681)" fill="#373125"/>
      <g id="Group_74" data-name="Group 74" transform="translate(22.066 44.678)">
        <g id="Group_73" data-name="Group 73">
          <path id="Path_62" data-name="Path 62" d="M120.874,146.762a4.514,4.514,0,0,0-3.683-1.867,35.818,35.818,0,0,1-6.262-.747,4.119,4.119,0,0,0-4.052,1.12c-1.842,1.867-1.842,4.481,0,6.721.737.747,1.842,1.494,2.578,2.24,3.315,1.494,7,1.494,9.945-.747C121.979,151.99,122.715,149,120.874,146.762Zm-3.683,4.107h-3.315a8.7,8.7,0,0,1-3.315-.747,2.058,2.058,0,0,1-1.105-1.867,1.692,1.692,0,0,1,1.842-1.494l6.262.373A1.7,1.7,0,0,1,119.032,149C118.3,150.123,117.927,150.87,117.19,150.87Z" transform="translate(-105.496 -144.008)" fill="#373125"/>
        </g>
      </g>
    </g>
  </g>
</svg>
