<svg xmlns="http://www.w3.org/2000/svg" xmlns:xlink="http://www.w3.org/1999/xlink" width="90" height="90" viewBox="0 0 90 90">
  <defs>
    <clipPath id="clip-path">
      <rect id="Rectangle_4" data-name="Rectangle 4" width="90" height="90" transform="translate(370 1989)" fill="#373125" stroke="#707070" stroke-width="1"/>
    </clipPath>
  </defs>
  <g id="nino2" transform="translate(-370 -1989)" clip-path="url(#clip-path)">
    <g id="male_x5F_party" transform="translate(385.907 1989)">
      <g id="Group_45" data-name="Group 45" transform="translate(8.01 40.107)" opacity="0.2">
        <g id="Group_44" data-name="Group 44">
          <path id="Path_47" data-name="Path 47" d="M74.75,83.361H73.057a36.017,36.017,0,0,0-14.56,0H56.8c-5.756,0-10.5-6.608-12.19-15.53v9.252c0,11.234,9.142,20.156,20.655,20.156h0c11.513,0,20.655-8.921,20.655-20.156V70.144C84.231,78.074,79.829,83.361,74.75,83.361Z" transform="translate(-44.614 -67.831)" fill="#373125"/>
        </g>
      </g>
      <g id="Group_47" data-name="Group 47" transform="translate(6.656 16.317)">
        <g id="Group_46" data-name="Group 46">
          <path id="Path_48" data-name="Path 48" d="M65.141,90.234A22.06,22.06,0,0,1,42.793,68.426V56.861c0-12.225,10.158-21.808,22.348-21.808s22.348,9.913,22.348,21.808V68.426A22.06,22.06,0,0,1,65.141,90.234Zm0-51.876a18.706,18.706,0,0,0-18.962,18.5V68.426a18.968,18.968,0,0,0,37.924,0V56.861A18.706,18.706,0,0,0,65.141,38.358Z" transform="translate(-42.793 -35.054)" fill="#373125"/>
        </g>
      </g>
      <g id="Group_49" data-name="Group 49" transform="translate(0 39.523)">
        <g id="Group_48" data-name="Group 48">
          <path id="Path_49" data-name="Path 49" d="M41.177,82.149c-2.709,0-5.418-2.313-6.772-5.617a9.582,9.582,0,0,1-.339-5.287,5.152,5.152,0,0,1,3.386-3.965c1.693-.661,4.063,0,5.756,1.652L40.5,71.245c-.677-.661-1.354-.991-2.032-.661a1.773,1.773,0,0,0-1.016,1.322,5.584,5.584,0,0,0,.339,3.3c.677,2.313,2.709,3.635,3.725,3.3l1.354,3.3A3.762,3.762,0,0,1,41.177,82.149Z" transform="translate(-33.844 -67.027)" fill="#373125"/>
        </g>
      </g>
      <g id="Group_51" data-name="Group 51" transform="translate(48.982 39.193)">
        <g id="Group_50" data-name="Group 50">
          <path id="Path_50" data-name="Path 50" d="M101.391,82.024a3.117,3.117,0,0,1-1.693-.33l1.354-3.3c1.016.33,2.709-.991,3.725-3.3.677-2.313.339-4.3-.677-4.626-.677-.33-1.354,0-2.032.661L99.7,68.477a5.588,5.588,0,0,1,5.756-1.652c3.047.991,4.4,5.287,2.709,9.252C106.809,79.711,104.1,82.024,101.391,82.024Z" transform="translate(-99.698 -66.572)" fill="#373125"/>
        </g>
      </g>
      <g id="Group_53" data-name="Group 53" transform="translate(6.656 69.514)">
        <g id="Group_52" data-name="Group 52">
          <path id="Path_51" data-name="Path 51" d="M74.622,110a3.645,3.645,0,0,1,4.4-.991h.339c4.741,1.983,8.127,5.287,8.127,8.591,0,6.278-9.82,11.234-22.348,11.234S42.793,123.877,42.793,117.6c0-3.635,3.386-6.939,8.465-8.921h0a3.645,3.645,0,0,1,4.4.991l4.741,5.617a6.517,6.517,0,0,0,9.82,0Z" transform="translate(-42.793 -108.348)" fill="#373125"/>
        </g>
      </g>
      <g id="Group_55" data-name="Group 55" transform="translate(21.555 49.359)">
        <g id="Group_54" data-name="Group 54">
          <path id="Path_52" data-name="Path 52" d="M70.612,80.578c-4.4,0-7.788.33-7.788,4.626a7.79,7.79,0,0,0,15.576,0C78.4,80.908,74.675,80.578,70.612,80.578Zm3.725,6.278H66.887a2.159,2.159,0,0,1-2.032-1.983,2.232,2.232,0,0,1,1.354-1.983,16.883,16.883,0,0,1,4.063-.33,14.288,14.288,0,0,1,4.063.33,1.813,1.813,0,0,1,1.354,1.983C76.368,85.865,75.352,86.856,74.336,86.856Z" transform="translate(-62.824 -80.578)" fill="#373125"/>
        </g>
      </g>
      <g id="Group_57" data-name="Group 57" transform="translate(11.683 38.455)">
        <g id="Group_56" data-name="Group 56">
          <path id="Path_53" data-name="Path 53" d="M81.771,65.555h-29.8A2.361,2.361,0,0,0,49.6,68.2l.339,5.948a2.287,2.287,0,0,0,2.37,2.313H57.73A5.537,5.537,0,0,0,63.486,71.5a3.571,3.571,0,0,1,3.047-2.643A2.94,2.94,0,0,1,69.581,71.5a6.084,6.084,0,0,0,5.756,4.956h5.418a2.287,2.287,0,0,0,2.37-2.313l.339-5.948A1.81,1.81,0,0,0,81.771,65.555ZM57.391,68.2a3.284,3.284,0,0,0-2.709,3.635h0a1.581,1.581,0,0,1-1.693,1.652A2.241,2.241,0,0,1,51.3,72.163v-.33A3.43,3.43,0,0,1,54.682,68.2h2.709Zm20.994,0a3.284,3.284,0,0,0-2.709,3.635h0a1.581,1.581,0,0,1-1.693,1.652,2.241,2.241,0,0,1-1.693-1.322v-.33A3.43,3.43,0,0,1,75.676,68.2h2.709Z" transform="translate(-49.551 -65.555)" fill="#373125"/>
        </g>
      </g>
      <path id="Path_54" data-name="Path 54" d="M89.53,33.515C87.5,26.577,81.065,18.647,71.923,18.647a11.353,11.353,0,0,0-5.756,1.322,1.487,1.487,0,0,1-1.354-2.643A16.035,16.035,0,0,1,72.6,15.342a16.524,16.524,0,0,1,10.836,4.3A16.034,16.034,0,0,0,66.166,13.03,15.066,15.066,0,0,0,55.331,23.6a14.773,14.773,0,0,0,2.032,12.556,13.243,13.243,0,0,0,10.5,5.948c4.063,0,5.756-2.643,8.8-2.643h1.016a9.354,9.354,0,0,1,9.481,9.252h0c.339.33.339.661.677.991C88.514,47.723,91.9,41.115,89.53,33.515Z" transform="translate(-39.194 -12.573)" fill="#373125"/>
    </g>
  </g>
</svg>
