<svg xmlns="http://www.w3.org/2000/svg" xmlns:xlink="http://www.w3.org/1999/xlink" width="50" height="50" viewBox="0 0 50 50">
  <defs>
    <clipPath id="clip-path">
      <rect id="Rectangle_25" data-name="Rectangle 25" width="50" height="50" transform="translate(230 517)" fill="#373125" stroke="#373125" stroke-width="1"/>
    </clipPath>
  </defs>
  <g id="ora1" transform="translate(-230 -517)" clip-path="url(#clip-path)">
    <g id="ora1-2" data-name="ora1" transform="translate(237.351 517)">
      <path id="Path_122" data-name="Path 122" d="M44.14,38.276a1.3,1.3,0,1,0,1.3,1.3,1.3,1.3,0,0,0-1.3-1.3Z" transform="translate(-20.365 -12.821)" fill="#373125" stroke="#373125" stroke-width="1.158"/>
      <path id="Path_123" data-name="Path 123" d="M29.552,40.881a1.3,1.3,0,1,0-1.3-1.3,1.3,1.3,0,0,0,1.3,1.3Z" transform="translate(-17.933 -12.821)" fill="#373125" stroke="#373125" stroke-width="1.158"/>
      <path id="Path_124" data-name="Path 124" d="M25.442,37.523a.627.627,0,1,0,.549.622.627.627,0,0,0-.549-.622Z" transform="translate(-17.374 -12.695)" fill="#373125" stroke="#373125" stroke-width="1.158"/>
      <path id="Path_125" data-name="Path 125" d="M33.519,24.892c-23.532.617-23.532,35.08,0,35.7C57.051,59.973,57.051,25.51,33.519,24.892ZM22.038,36.952c0-5.046,7.6-5.046,7.622,0S22.057,42,22.038,36.952ZM33.519,53.692c-5.123,0-9.291-3.618-9.291-8.056a.965.965,0,1,1,1.93,0c.145,8.047,14.588,8.037,14.733,0a.965.965,0,0,1,1.93,0C42.829,50.074,38.661,53.692,33.519,53.692Zm7.718-12.88c-4.988,0-4.988-7.718,0-7.718s5.036,7.718.048,7.718Z" transform="translate(-15.87 -10.59)" fill="#373125" stroke="#373125" stroke-width="1.158"/>
      <path id="Path_126" data-name="Path 126" d="M48.516,37.523a.627.627,0,1,0,.55.622A.627.627,0,0,0,48.516,37.523Z" transform="translate(-21.22 -12.695)" fill="#373125" stroke="#373125" stroke-width="1.158"/>
      <path id="Path_127" data-name="Path 127" d="M39.695,18.124,49.951,7.859C45.976,6.624,38.431,14.574,39.695,18.124Z" transform="translate(-19.817 -7.73)" fill="#373125" stroke="#373125" stroke-width="1.158"/>
      <path id="Path_128" data-name="Path 128" d="M41.379,19.763c3.859,1.3,11.52-6.754,10.246-10.246Z" transform="translate(-20.122 -8.027)" fill="#373125" stroke="#373125" stroke-width="1.158"/>
      <path id="Path_129" data-name="Path 129" d="M29.747,18.285a6.532,6.532,0,0,0,3.608,2.1L27.567,14.6A7.207,7.207,0,0,0,29.747,18.285Z" transform="translate(-17.82 -8.875)" fill="#373125" stroke="#373125" stroke-width="1.158"/>
      <path id="Path_130" data-name="Path 130" d="M34.3,16.934c-.868-1.7-3.676-3.859-5.085-3.956L34.3,18.063Z" transform="translate(-18.094 -8.604)" fill="#373125" stroke="#373125" stroke-width="1.158"/>
    </g>
  </g>
</svg>
