<svg xmlns="http://www.w3.org/2000/svg" xmlns:xlink="http://www.w3.org/1999/xlink" width="50" height="50" viewBox="0 0 50 50">
  <defs>
    <clipPath id="clip-path">
      <rect id="Rectangle_31" data-name="Rectangle 31" width="50" height="50" transform="translate(230 1705)" fill="#373125" stroke="#373125" stroke-width="1"/>
    </clipPath>
  </defs>
  <g id="ora10" transform="translate(-230 -1705)" clip-path="url(#clip-path)">
    <g id="Layer_7" data-name="Layer 7" transform="translate(224.126 1698.559)">
      <path id="Path_252" data-name="Path 252" d="M30.874,20.743c-23.532.617-23.532,35.08,0,35.7C54.406,55.824,54.406,21.361,30.874,20.743ZM19.3,32.8a.965.965,0,0,1-1.93,0,5.789,5.789,0,1,1,11.578,0,.965.965,0,0,1-1.93,0C27.015,27.758,19.3,27.758,19.3,32.8Zm20.888,8.683c-.212,10.613-18.4,10.613-18.592,0a.965.965,0,0,1,.965-.965H39.22A.965.965,0,0,1,40.184,41.487Zm3.232-7.718a.965.965,0,0,1-.965-.965c0-5.046-7.718-5.046-7.718,0a.965.965,0,0,1-1.93,0c0-7.574,11.578-7.564,11.578,0A.965.965,0,0,1,43.416,33.768Z" fill="#373125"/>
      <path id="Path_253" data-name="Path 253" d="M30.874,47.613c3.666,0,6.754-2.238,7.265-5.162H23.619C24.178,45.346,27.217,47.613,30.874,47.613Z" fill="#373125"/>
      <path id="Path_254" data-name="Path 254" d="M29.427,14.771c-.868-1.7-3.676-3.859-5.085-3.956L29.427,15.9Z" fill="#373125"/>
      <path id="Path_255" data-name="Path 255" d="M34.482,18.177C38.342,19.48,46,11.423,44.729,7.931Z" fill="#373125"/>
      <path id="Path_256" data-name="Path 256" d="M25.153,15.852a6.532,6.532,0,0,0,3.608,2.1l-5.789-5.789A7.207,7.207,0,0,0,25.153,15.852Z" fill="#373125"/>
      <path id="Path_257" data-name="Path 257" d="M33.1,16.836,43.359,6.57C39.384,5.335,31.839,13.285,33.1,16.836Z" fill="#373125"/>
    </g>
  </g>
</svg>
