<svg xmlns="http://www.w3.org/2000/svg" xmlns:xlink="http://www.w3.org/1999/xlink" width="50" height="50" viewBox="0 0 50 50">
  <defs>
    <clipPath id="clip-path">
      <rect id="Rectangle_28" data-name="Rectangle 28" width="50" height="50" transform="translate(230 628)" fill="#373125" stroke="#373125" stroke-width="1"/>
    </clipPath>
  </defs>
  <g id="ora2" transform="translate(-230 -628)" clip-path="url(#clip-path)">
    <g id="Layer_17" data-name="Layer 17" transform="translate(224.126 621.559)">
      <path id="Path_233" data-name="Path 233" d="M29.427,14.771c-.868-1.7-3.676-3.859-5.085-3.956L29.427,15.9Z" fill="#373125"/>
      <path id="Path_234" data-name="Path 234" d="M30.874,20.743c-23.532.617-23.532,35.08,0,35.7C54.406,55.824,54.406,21.361,30.874,20.743Zm3.859,9.445,3.174-3.174c.878-.9,2.267.492,1.37,1.36l-2.537,2.5,2.537,2.537c.9.868-.492,2.258-1.37,1.36l-3.174-3.213a.965.965,0,0,1,0-1.37ZM22.47,28.336c-.9-.868.492-2.258,1.37-1.36l3.174,3.213a.965.965,0,0,1,0,1.37c-.434.289-3.3,3.7-3.859,3.493-2.788-.6,1.264-3.358,1.852-4.178Zm8.413,21.226c-5.123,0-9.291-3.618-9.291-8.056a.965.965,0,0,1,1.93,0c.145,8.047,14.588,8.037,14.733,0a.965.965,0,1,1,1.93,0c0,4.419-4.168,8.037-9.31,8.037Z" fill="#373125"/>
      <path id="Path_235" data-name="Path 235" d="M25.153,15.852a6.532,6.532,0,0,0,3.608,2.1l-5.789-5.789A7.207,7.207,0,0,0,25.153,15.852Z" fill="#373125"/>
      <path id="Path_236" data-name="Path 236" d="M33.1,16.836,43.359,6.57C39.384,5.335,31.839,13.285,33.1,16.836Z" fill="#373125"/>
      <path id="Path_237" data-name="Path 237" d="M34.482,18.177C38.342,19.48,46,11.423,44.729,7.931Z" fill="#373125"/>
    </g>
  </g>
</svg>
