<svg xmlns="http://www.w3.org/2000/svg" xmlns:xlink="http://www.w3.org/1999/xlink" width="50" height="50" viewBox="0 0 50 50">
  <defs>
    <clipPath id="clip-path">
      <rect id="Rectangle_27" data-name="Rectangle 27" width="50" height="50" transform="translate(230 775)" fill="#373125" stroke="#373125" stroke-width="1"/>
    </clipPath>
  </defs>
  <g id="ora4" transform="translate(-230 -775)" clip-path="url(#clip-path)">
    <g id="Layer_3" data-name="Layer 3" transform="translate(224.126 768.559)">
      <path id="Path_153" data-name="Path 153" d="M37,31.9a1.3,1.3,0,1,0,1.3,1.3A1.3,1.3,0,0,0,37,31.9Z" fill="#373125"/>
      <path id="Path_154" data-name="Path 154" d="M30.874,20.743c-23.532.617-23.532,35.08,0,35.7C54.406,55.824,54.406,21.361,30.874,20.743ZM19.393,32.8c0-5.046,7.6-5.046,7.622,0S19.412,37.849,19.393,32.8ZM39.22,49.543a.965.965,0,0,1-.965-.965c-.154-8.047-14.588-8.037-14.733,0a.965.965,0,1,1-1.93,0c.193-10.613,18.4-10.613,18.592,0A.965.965,0,0,1,39.22,49.543Zm-.579-12.88c-4.988,0-4.988-7.718,0-7.718S43.629,36.663,38.641,36.663Z" fill="#373125"/>
      <path id="Path_155" data-name="Path 155" d="M24.844,34.5a1.3,1.3,0,1,0-1.3-1.3,1.3,1.3,0,0,0,1.3,1.3Z" fill="#373125"/>
      <path id="Path_156" data-name="Path 156" d="M21.293,31.269a.627.627,0,1,0,.549.622.627.627,0,0,0-.549-.622Z" fill="#373125"/>
      <path id="Path_157" data-name="Path 157" d="M40.522,31.269a.627.627,0,1,0,.55.622A.627.627,0,0,0,40.522,31.269Z" fill="#373125"/>
      <path id="Path_158" data-name="Path 158" d="M33.1,16.836,43.359,6.57C39.384,5.335,31.839,13.285,33.1,16.836Z" fill="#373125"/>
      <path id="Path_159" data-name="Path 159" d="M34.482,18.177C38.342,19.48,46,11.423,44.729,7.931Z" fill="#373125"/>
      <path id="Path_160" data-name="Path 160" d="M25.153,15.852a6.532,6.532,0,0,0,3.608,2.1l-5.789-5.789A7.207,7.207,0,0,0,25.153,15.852Z" fill="#373125"/>
      <path id="Path_161" data-name="Path 161" d="M29.427,14.771c-.868-1.7-3.676-3.859-5.085-3.956L29.427,15.9Z" fill="#373125"/>
    </g>
  </g>
</svg>
