<svg xmlns="http://www.w3.org/2000/svg" xmlns:xlink="http://www.w3.org/1999/xlink" width="50" height="50" viewBox="0 0 50 50">
  <defs>
    <clipPath id="clip-path">
      <rect id="Rectangle_27" data-name="Rectangle 27" width="50" height="50" transform="translate(230 845)" fill="#373125" stroke="#373125" stroke-width="1"/>
    </clipPath>
  </defs>
  <g id="ora5" transform="translate(-230 -845)" clip-path="url(#clip-path)">
    <g id="Layer_29" data-name="Layer 29" transform="translate(224.109 838.505)">
      <path id="Path_162" data-name="Path 162" d="M33.132,16.851,43.455,6.576C38.753,5.63,32.147,13.22,33.132,16.851Z" fill="#373125"/>
      <path id="Path_163" data-name="Path 163" d="M40.558,33.509a.628.628,0,1,0-.55-.623A.628.628,0,0,0,40.558,33.509Z" fill="#373125"/>
      <path id="Path_164" data-name="Path 164" d="M34.523,18.193c3.969.879,11.057-5.591,10.236-10.236Z" fill="#373125"/>
      <path id="Path_165" data-name="Path 165" d="M16.658,32.051c1.352-6.093,10.622-6.682,12.766-.83a4.008,4.008,0,0,1,2.955,0c2.124-5.852,11.414-5.263,12.766.83L46.9,30.728c-6.093-13.124-25.919-13.114-32,0Z" fill="#373125"/>
      <path id="Path_166" data-name="Path 166" d="M25.175,15.866a6.538,6.538,0,0,0,3.612,2.105l-5.794-5.794A7.214,7.214,0,0,0,25.175,15.866Z" fill="#373125"/>
      <path id="Path_167" data-name="Path 167" d="M29.453,14.784c-.869-1.7-3.679-3.863-5.089-3.959l5.089,5.089Z" fill="#373125"/>
      <path id="Path_168" data-name="Path 168" d="M47.685,32.563l-2.3,1.738c-.85,8.942-14.205,7.8-13.519-1.178a2.018,2.018,0,0,0-2.009,0C30.583,42.1,17.228,43.233,16.407,34.3L14.08,32.563C9.763,43.842,18.773,56.733,30.9,56.492,43.03,56.733,52.04,43.842,47.685,32.563ZM30.9,51.519c-5.128,0-9.3-3.621-9.3-8.063a.966.966,0,1,1,1.931,0c.145,8.054,14.6,8.044,14.746,0a.966.966,0,1,1,1.931,0C40.22,47.9,36.049,51.519,30.9,51.519Z" fill="#373125"/>
      <path id="Path_169" data-name="Path 169" d="M21.312,32.263a.628.628,0,1,0,.55.623.628.628,0,0,0-.55-.623Z" fill="#373125"/>
      <path id="Path_170" data-name="Path 170" d="M24.866,32.891a1.3,1.3,0,1,0,1.3,1.3,1.3,1.3,0,0,0-1.3-1.3Z" fill="#373125"/>
      <path id="Path_171" data-name="Path 171" d="M23.176,28.97c-6.316,0-6.316,9.657,0,9.657S29.492,28.97,23.176,28.97Zm.048,8.691c-4.993,0-4.993-7.725,0-7.725S28.217,37.661,23.224,37.661Z" fill="#373125"/>
      <path id="Path_172" data-name="Path 172" d="M33.8,33.8c0,6.316,9.657,6.316,9.657,0S33.8,27.483,33.8,33.8Zm8.691,0c0,5.05-7.61,5.05-7.629,0S42.49,28.748,42.49,33.8Z" fill="#373125"/>
      <path id="Path_173" data-name="Path 173" d="M37.034,35.5a1.3,1.3,0,1,0-1.3-1.3,1.3,1.3,0,0,0,1.3,1.3Z" fill="#373125"/>
    </g>
  </g>
</svg>
