<svg xmlns="http://www.w3.org/2000/svg" xmlns:xlink="http://www.w3.org/1999/xlink" width="50" height="50" viewBox="0 0 50 50">
  <defs>
    <clipPath id="clip-path">
      <rect id="Rectangle_27" data-name="Rectangle 27" width="50" height="50" transform="translate(230 915)" fill="#373125" stroke="#373125" stroke-width="1"/>
    </clipPath>
  </defs>
  <g id="ora6" transform="translate(-230 -915)" clip-path="url(#clip-path)">
    <g id="Layer_15" data-name="Layer 15" transform="translate(224.186 908.509)">
      <path id="Path_174" data-name="Path 174" d="M40.551,32.258a.628.628,0,1,0,.55.623A.628.628,0,0,0,40.551,32.258Z" fill="#373125"/>
      <path id="Path_175" data-name="Path 175" d="M37.027,32.885a1.3,1.3,0,1,0,1.3,1.3,1.3,1.3,0,0,0-1.3-1.3Z" fill="#373125"/>
      <path id="Path_176" data-name="Path 176" d="M26.146,34.189a1.294,1.294,0,1,0-1.289,1.182,1.294,1.294,0,0,0,1.289-1.182Z" fill="#373125"/>
      <path id="Path_177" data-name="Path 177" d="M20.691,32.885a.618.618,0,1,0,.618-.618A.618.618,0,0,0,20.691,32.885Z" fill="#373125"/>
      <path id="Path_178" data-name="Path 178" d="M34.613,18.209c3.93.763,10.968-5.639,10.138-10.254L34.517,18.19Z" fill="#373125"/>
      <path id="Path_179" data-name="Path 179" d="M28.3,17.91a.83.83,0,0,0,.483.058l-5.793-5.793C23.172,14.067,26.175,17.379,28.3,17.91Z" fill="#373125"/>
      <path id="Path_180" data-name="Path 180" d="M43.448,6.575C38.794,5.61,32.19,13.218,33.175,16.848Z" fill="#373125"/>
      <path id="Path_181" data-name="Path 181" d="M29.448,14.792c-.917-1.757-3.64-3.862-5.088-3.968l5.088,5.088Z" fill="#373125"/>
      <path id="Path_182" data-name="Path 182" d="M30.9,20.758a18.113,18.113,0,0,0-3.64.377,1.931,1.931,0,0,1-.57,2.172,1.931,1.931,0,0,1-1.709,2.81c-.28,0-1.429-.27-1.728-.309-.116.966-.483,2.192-1.6,2.414l5.291,3.022a.966.966,0,0,1,0,1.69,3.862,3.862,0,0,1-3.717,4.721c-3.939.135-5.223-5.668-1.719-7.29-.84-.463-3.012-1.419-1.545-2.52a2.057,2.057,0,0,1-.29-.29,1.931,1.931,0,0,1-2.394-.463C7.434,37.935,16.056,56.965,30.9,56.482,54.445,55.864,54.445,21.376,30.9,20.758Zm4.828,28.965H26.069a1.448,1.448,0,1,1,0-2.9h9.655a1.448,1.448,0,0,1,0,2.9Zm2.9-12.069A3.862,3.862,0,0,1,34.9,32.933a.966.966,0,0,1,0-1.69l6.015-3.428a.966.966,0,0,1,.966,1.67l-1.526.879c3.534,1.622,2.24,7.425-1.69,7.29Z" fill="#373125"/>
      <path id="Path_183" data-name="Path 183" d="M16.414,20.961c.888,0,4.1,1.5,4.364-.1l.57-2.829a.966.966,0,0,0-1.883-.386l-.386,1.883L16.8,19.069a.966.966,0,0,0-.386,1.892Z" fill="#373125"/>
      <path id="Path_184" data-name="Path 184" d="M15.912,23.317l2.279.463L17.8,25.711a.985.985,0,0,0,1.931.386c0-.879,1.39-3.717-.174-3.968l-3.225-.657a.966.966,0,0,0-.425,1.844Z" fill="#373125"/>
      <path id="Path_185" data-name="Path 185" d="M22.043,22.11l3.225.657a.966.966,0,0,0,.386-1.883l-2.288-.473.386-1.883a.985.985,0,0,0-1.931-.386C21.878,19.011,20.478,21.859,22.043,22.11Z" fill="#373125"/>
      <path id="Path_186" data-name="Path 186" d="M25.171,23.24c-.9,0-4.1-1.5-4.364.1l-.531,2.829a.985.985,0,0,0,1.931.386l.386-1.883,2.279.463a.966.966,0,0,0,.3-1.892Z" fill="#373125"/>
    </g>
  </g>
</svg>
