<svg xmlns="http://www.w3.org/2000/svg" xmlns:xlink="http://www.w3.org/1999/xlink" width="50" height="50" viewBox="0 0 50 50">
  <defs>
    <clipPath id="clip-path">
      <rect id="Rectangle_27" data-name="Rectangle 27" width="50" height="50" transform="translate(230 985)" fill="#373125" stroke="#373125" stroke-width="1"/>
    </clipPath>
  </defs>
  <g id="ora7" transform="translate(-230 -985)" clip-path="url(#clip-path)">
    <g id="Layer_41" data-name="Layer 41" transform="translate(224.096 978.504)">
      <path id="Path_187" data-name="Path 187" d="M29.455,14.8c-.917-1.758-3.641-3.863-5.089-3.969l5.089,5.089Z" fill="#373125"/>
      <path id="Path_188" data-name="Path 188" d="M30.9,20.763c-23.554.618-23.554,35.114,0,35.732C54.458,55.878,54.458,21.381,30.9,20.763ZM19.141,32.98c-1.931-2.607,1.671-4.7,3.477-1.989,1.767-2.714,5.437-.618,3.467,1.989-.473.5-2.9,2.9-3.467,3.477ZM30.9,49.591c-5.128,0-9.3-3.622-9.3-8.064a.966.966,0,1,1,1.931,0c.145,8.054,14.6,8.045,14.747,0a.966.966,0,1,1,1.931,0C40.223,45.969,36.051,49.591,30.9,49.591ZM42.493,32.98c-.473.493-2.9,2.945-3.467,3.477-.55-.57-2.974-2.965-3.477-3.477-1.931-2.607,1.671-4.7,3.477-1.989,1.777-2.714,5.447-.618,3.467,1.989Z" fill="#373125"/>
      <path id="Path_189" data-name="Path 189" d="M33.135,16.852,43.458,6.577C38.755,5.63,32.149,13.221,33.135,16.852Z" fill="#373125"/>
      <path id="Path_190" data-name="Path 190" d="M25.177,15.867a6.557,6.557,0,0,0,3.612,2.105l-5.794-5.794A7.214,7.214,0,0,0,25.177,15.867Z" fill="#373125"/>
      <path id="Path_191" data-name="Path 191" d="M34.525,18.195c3.969.879,11.058-5.592,10.237-10.237Z" fill="#373125"/>
    </g>
  </g>
</svg>
