<svg xmlns="http://www.w3.org/2000/svg" xmlns:xlink="http://www.w3.org/1999/xlink" width="50" height="50" viewBox="0 0 50 50">
  <defs>
    <clipPath id="clip-path">
      <rect id="Rectangle_29" data-name="Rectangle 29" width="50" height="50" transform="translate(230 1300)" fill="#373125" stroke="#373125" stroke-width="1"/>
    </clipPath>
  </defs>
  <g id="ora8" transform="translate(-230 -1300)" clip-path="url(#clip-path)">
    <g id="Layer_18" data-name="Layer 18" transform="translate(224.126 1293.559)">
      <path id="Path_238" data-name="Path 238" d="M21.293,31.269a.627.627,0,1,0,.549.622.627.627,0,0,0-.549-.622Z" fill="#373125"/>
      <path id="Path_239" data-name="Path 239" d="M37,31.9a1.3,1.3,0,1,0,1.3,1.3A1.3,1.3,0,0,0,37,31.9Z" fill="#373125"/>
      <path id="Path_240" data-name="Path 240" d="M40.522,31.269a.627.627,0,1,0,.55.622A.627.627,0,0,0,40.522,31.269Z" fill="#373125"/>
      <path id="Path_241" data-name="Path 241" d="M24.844,31.9a1.3,1.3,0,1,0,1.3,1.3,1.3,1.3,0,0,0-1.3-1.3Z" fill="#373125"/>
      <path id="Path_242" data-name="Path 242" d="M30.874,20.743c-23.532.617-23.532,35.08,0,35.7C54.406,55.824,54.406,21.361,30.874,20.743ZM19.393,32.8c0-5.046,7.6-5.046,7.622,0S19.412,37.849,19.393,32.8ZM36.18,51.617a.965.965,0,1,1-1.93,0v-8.2a3.377,3.377,0,1,0-6.754,0v8.2a.965.965,0,1,1-1.93,0c.3-4.631-1.843-13.276,5.306-13.507C38.023,38.342,35.881,46.986,36.18,51.617Zm2.46-14.955c-4.988,0-4.988-7.718,0-7.718S43.629,36.663,38.641,36.663Z" fill="#373125"/>
      <path id="Path_243" data-name="Path 243" d="M25.153,15.852a6.532,6.532,0,0,0,3.608,2.1l-5.789-5.789A7.207,7.207,0,0,0,25.153,15.852Z" fill="#373125"/>
      <path id="Path_244" data-name="Path 244" d="M33.1,16.836,43.359,6.57C39.384,5.335,31.839,13.285,33.1,16.836Z" fill="#373125"/>
      <path id="Path_245" data-name="Path 245" d="M29.427,14.771c-.868-1.7-3.676-3.859-5.085-3.956L29.427,15.9Z" fill="#373125"/>
      <path id="Path_246" data-name="Path 246" d="M34.482,18.177C38.342,19.48,46,11.423,44.729,7.931Z" fill="#373125"/>
    </g>
  </g>
</svg>
