<svg xmlns="http://www.w3.org/2000/svg" xmlns:xlink="http://www.w3.org/1999/xlink" width="50" height="50" viewBox="0 0 50 50">
  <defs>
    <clipPath id="clip-path">
      <rect id="Rectangle_30" data-name="Rectangle 30" width="50" height="50" transform="translate(230 1508)" fill="#373125" stroke="#373125" stroke-width="1"/>
    </clipPath>
  </defs>
  <g id="ora9" transform="translate(-230 -1508)" clip-path="url(#clip-path)">
    <g id="Layer_12" data-name="Layer 12" transform="translate(224.126 1501.559)">
      <path id="Path_247" data-name="Path 247" d="M29.427,14.771c-.868-1.7-3.676-3.859-5.085-3.956L29.427,15.9Z" fill="#373125"/>
      <path id="Path_248" data-name="Path 248" d="M30.874,20.743c-23.532.617-23.532,35.08,0,35.7C54.406,55.824,54.406,21.361,30.874,20.743ZM19.3,32.8a.965.965,0,0,1-1.93,0,5.789,5.789,0,1,1,11.578,0,.965.965,0,0,1-1.93,0C27.015,27.758,19.3,27.758,19.3,32.8ZM34.733,51.135a4.824,4.824,0,0,1-3.859-1.93c-2.518,3.7-8.847,1.679-8.683-2.894a.965.965,0,0,1,1.93,0,2.894,2.894,0,0,0,5.789,0,.965.965,0,1,1,1.93,0,2.894,2.894,0,0,0,5.789,0,.965.965,0,1,1,1.93,0,4.824,4.824,0,0,1-4.824,4.824Zm8.683-17.367a.965.965,0,0,1-.965-.965c0-5.046-7.718-5.046-7.718,0a.965.965,0,0,1-1.93,0c0-7.574,11.578-7.564,11.578,0A.965.965,0,0,1,43.416,33.768Z" fill="#373125"/>
      <path id="Path_249" data-name="Path 249" d="M34.482,18.177C38.342,19.48,46,11.423,44.729,7.931Z" fill="#373125"/>
      <path id="Path_250" data-name="Path 250" d="M25.153,15.852a6.532,6.532,0,0,0,3.608,2.1l-5.789-5.789A7.207,7.207,0,0,0,25.153,15.852Z" fill="#373125"/>
      <path id="Path_251" data-name="Path 251" d="M33.1,16.836,43.359,6.57C39.384,5.335,31.839,13.285,33.1,16.836Z" fill="#373125"/>
    </g>
  </g>
</svg>
